<svg id="_レイヤー_2" data-name="レイヤー 2" xmlns="http://www.w3.org/2000/svg" viewBox="0 0 442.08 276.33" height="37" width="60"><g id="_レイヤー_1-2" data-name="レイヤー 1"><path d="M166.61,135.23c-2.07.02-7.77.02-17.1,0-4.02-.01-7.46.08-10.3.26-3.66.24-7.08.53-10.25.86-17.65,1.87-37.23,7.89-50.96,14.34-12.01,5.64-23.04,14.02-31.45,24.38-4.49,5.53-8.19,11.95-10.28,18.85-2.1,6.92-2.01,13.84.27,20.76,2.67,8.1,7.15,15.46,12.71,22.03,8.5,10.04,18.71,17.82,30.63,23.35,11.08,5.14,22.92,8.36,35.54,9.66,2.22.23,14.49,1.41,23.26-1.72,7.19-2.57,11.25-10.97,12.12-13.07,2.9-7.01,5.32-18.54,7.19-28.3,5.82-30.32,8.63-60.55,8.71-91.32,0-.05-.04-.08-.09-.08ZM265.72,135.16l-78.22-1.45c-.13,0-.23.1-.23.23-.02,31.47,2.4,62.89,8.27,93.23,1.86,9.59,3.51,18.96,8.02,27.76,4.69,9.15,12.28,15.2,23.81,15.33,13.79.15,22.42-11.39,24-14.79,2.21-4.74,5.35-15.25,6.85-22.03,7.06-31.86,9.63-65.52,7.71-98.26h0s-.2-.01-.21-.01ZM148.17,132.4c.3,0,.66,0,1.03,0,2.82-.03,6.8-.27-.07-.16-7.23.11-16.16.25-26.81.4-6.76.1-11.84.26-15.26.49-18.04,1.21-36.25,4.38-52.83,10.96-12.67,5.03-23.79,12.36-33.36,21.99-8.88,8.93-16.58,21.07-17.87,33.72-.78,7.55.94,15.04,4.05,21.98,6.05,13.47,16.4,25.03,28.55,33.23,7.8,5.27,16.56,9.15,25.58,11.82,19.22,5.7,39.05,6.77,59.41,6.67.14,0,.24-.11.25-.25v-.02c0-.14-.11-.26-.25-.27-13.05-.81-25.55-4.11-37.65-8.49-19.41-7.02-37.67-24.96-44.09-37.73-4.11-8.16-7.82-17.48-6.71-26.58.67-5.5,2.37-10.84,5.09-16.02,2.74-5.22,6.15-10.03,10.24-14.45,7.33-7.93,15.75-14.41,25.25-19.44,18.17-9.62,38.3-15.13,58.86-16.98,1.52-.14,4.28-.35,8.28-.65,2.7-.2,5.46-.28,8.3-.23ZM187.41,129.17l77.93.92c.14,0-2.29-23.91-4.22-35.76-1.32-8.1-1.86-13.42-3.57-23.3-.26-1.5-2.1-9.34-2.2-9.67-1.6-5.09-4.84-7.21-9.45-9.29-6.06-2.74-13.45-3.87-20.37-4.65-.05,0-.08-.04-.08-.09v-3.07s.02-.06.05-.06l102.77-.21c.06,0,.12.05.12.12v3.03c0,.06-.03.11-.09.11-6.92.95-13.42,2.59-19.87,5.53-2.79,1.27-6.56,4.41-8.1,7.13-1.6,2.84-2.54,5.48-3.31,8.23-2.6,9.3-2.99,17.27-4.38,26.18-1.61,10.33-4.32,35.76-4.22,35.76,6.04.04,11.19.13,15.45.12,4.79-.01,8.93-.28,12.45-.8,15.54-2.31,30.76-8.78,41.33-20.38,9.38-10.29,14.99-23.78,16-37.92.91-12.55-1.29-24.77-7.45-35.5-5.53-9.63-13.09-17.22-22.68-22.78-4.86-2.82-10.48-4.93-16.87-6.34-2.25-.5-4.8-.8-7.67-.9-2.8-.1-6.5-.19-11.08-.28-19.96-.38-40.56-.6-61.82-.66-7.07-.02-39.17-3.25-46.07,12.8-1.43,3.33-8.62,44.73-8.97,48.51-2.17,23.22-3.44,39.58-3.8,63.05,0,.08.06.14.14.14ZM166.66,128.98c.02-.78.02-1.97-.01-3.55-.35-17.58-1.51-42.05-3.48-59.44-1.24-11.03-7.35-41.1-11.73-48.51-3.35-5.68-15.5-9.58-18.09-10.34-4.65-1.37-9.2-2.35-13.65-2.95-.13-.02-.22-.12-.22-.25l.04-3.33c0-.11.09-.2.21-.21,29.55-.26,150.42-.59,179.44-.21,12.36.16,25.01.76,37.95,1.16,3.74.12,7.48.36,11.1.97,8.96,1.52,17.42,4.34,25.36,8.45,6.23,3.23,11.57,7,16.01,11.32,4.83,4.7,8.82,9.88,11.98,15.55,5.88,10.55,7.83,23.19,6.9,35.36-.42,5.5-1.58,10.83-3.68,16.1-3.03,7.59-7.3,14.26-12.82,20.01-4.18,4.35-9.34,8.31-15.47,11.87-5.65,3.28-11.61,5.89-17.88,7.84-8.22,2.55-17.02,3.88-26.39,4.93-8.65.97-17.29,1.53-25.89,1.68-5.9.1-11.99-.19-18.23-.23h-.19s0,.04,0,.05c-1.62,28.41,2.69,69.86,7.79,97.68.69,3.76,3.66,15.99,7.02,22.03,6.52,11.71,22.03,15.34,34.65,15.33,10.24,0,21.07.58,32.2-.78,4.73-.57,8.77-1.29,12.12-2.14,8.24-2.1,16.46-4.78,23.38-9.59,13.19-9.17,19.86-18.19,25.14-29.1,3.07-6.34,5.91-12.83,8.53-19.49.06-.15.22-.23.37-.18l2.77.8c.14.04.22.17.19.31l-11.86,66.06c-.01.07-.08.13-.15.13-104.44,0-198.27,0-281.51,0-12.93,0-25.46.13-37.32-.06-21.68-.34-44-2.71-63.75-11.48-14.45-6.41-26.76-16.52-35.92-29.43-5.07-7.15-9.02-15.32-10.76-23.89-1.05-5.16-1.07-10.3-.07-15.42,2.71-13.9,11.76-26.43,22.19-35.78,10.17-9.12,21.88-15.97,35.12-20.56,6.47-2.24,12.94-4.03,19.41-5.36,13.29-2.73,26.9-4.2,40.85-4.4,23.45-.34,39.51-.59,48.16-.74.11,0,.19-.09.2-.19Z" /></g></svg>